<?xml version="1.0" encoding="UTF-8"?>
<svg id="Layer_1" data-name="Layer 1" xmlns="http://www.w3.org/2000/svg" viewBox="0 0 2000 467">
  <defs>
    <style>
      .cls-1 {
        fill: #d18704;
      }
    </style>
  </defs>
  <path class="cls-1" d="M104.52,204.98c.29,16.29,13.06,25.18,25.38,33.06,3.71,2.37,7.28,4.55,10.82,7.18,14.05,10.44,22.74,26.81,19.57,44.48-2.3,12.85-10.79,23.39-22.82,28.39-10.66,4.43-21.78,4.07-32.88,1.52-8.82-2.03-16.48-6.8-22.11-13.92-9.73-12.2-11.67-29.38-6.45-43.82-1.82,9.35-1.21,18.62,2.84,27.19,3,6.35,7.53,11.77,13.62,15.4,12.11,7.23,28.93,9.29,41.53,2.21,5.72-3.22,10.09-8.22,11.97-14.53,2.8-9.4.66-19.38-5.38-27.03-10.18-12.9-28.73-20.71-40.94-34.81-6.67-7.69-9.85-17.8-8.43-27.85,2.47-15.49,14.7-23.73,29.73-24.46l-.1-24.45c-.02-5.34-9.47-5.92-13.31-6.38-.1-.44-.08-1.09.04-1.66l38.64.33c4.94.04,9.52.31,14.37.84,11.38,1.25,23.38,6.77,28.94,17.25,5.39,10.16,2.11,21.1-6.12,28.54-2.83,2.4-5.74,4.56-9.15,6.13l-10.58,4.88,19.46,20.81,19.5,20.94,8.72,9.28c5.51,5.87,11.22,10.98,19.58,11.78.29.03.46.84.26.87-4.73.35-10,.43-14.94-.05-4.69-.46-8.85-1.92-12.72-4.51-2.8-1.87-5.32-3.88-7.68-6.37l-27.46-28.95-22.75-24.08c16.05.22,30.83-8.09,31.85-25.21.32-10.38-2.94-19.71-12.45-24.84-3.89-2.13-7.99-3.28-12.41-4.07-6.19-1.01-12.27-1.17-18.71-1.03l.27,34.77c-13.84-2.55-30.27,6.68-29.71,22.16Z"/>
  <g>
    <path class="cls-1" d="M321.67,259.66c1.62,2.49,3.61,4.63,5.96,6.42,2.36,1.79,5.59,4,9.7,6.62,4.46,2.8,7.97,5.2,10.55,7.21,2.58,2.01,4.78,4.48,6.62,7.41,1.84,2.93,2.75,6.36,2.75,10.29,0,4.46-1.16,8.43-3.47,11.93-2.32,3.5-5.59,6.22-9.83,8.19-4.24,1.97-9.07,2.95-14.48,2.95-3.67,0-7.45-.48-11.34-1.44-3.89-.96-6.84-2.14-8.85-3.54-.79-.52-1.22-1.35-1.31-2.49l-.79-19.79v-.13c0-.35.22-.55.66-.59.44-.04.7.11.79.46,2.88,7.17,6.18,13.06,9.89,17.69,3.71,4.63,8.41,6.95,14.09,6.95,3.84,0,7.03-1.03,9.57-3.08,2.53-2.05,3.8-5.48,3.8-10.29,0-3.84-.85-7.21-2.56-10.09-1.7-2.88-3.8-5.29-6.29-7.21-2.49-1.92-5.88-4.28-10.16-7.08-4.19-2.71-7.47-5-9.83-6.88-2.36-1.88-4.37-4.2-6.03-6.95-1.66-2.75-2.49-5.96-2.49-9.63,0-4.54,1.27-8.39,3.8-11.53,2.53-3.15,5.83-5.48,9.89-7.01,4.06-1.53,8.32-2.29,12.78-2.29,2.88,0,5.81.28,8.78.85,2.97.57,5.51,1.29,7.6,2.16,1.31.52,1.97,1.35,1.97,2.49l.26,17.69c0,.35-.2.57-.59.66-.39.09-.68,0-.85-.26-1.75-5.33-4.09-10.16-7.01-14.48-2.93-4.32-7.32-6.49-13.17-6.49-3.93,0-7.06,1.16-9.37,3.47-2.32,2.32-3.47,5.4-3.47,9.24,0,3.23.81,6.1,2.42,8.59Z"/>
    <path class="cls-1" d="M460.59,242.56c-2.05-2.53-5-3.8-8.85-3.8-.18,0-.26-.26-.26-.79s.09-.79.26-.79l6.03.13c3.32.18,5.94.26,7.86.26,1.57,0,3.93-.09,7.08-.26l5.77-.13c.17,0,.26.26.26.79s-.09.79-.26.79c-3.41,0-6.05,1.27-7.93,3.8-1.88,2.53-2.82,6.07-2.82,10.62v36.7c0,6.29-1.33,11.77-4,16.45-2.67,4.68-6.42,8.28-11.27,10.81-4.85,2.53-10.47,3.8-16.84,3.8s-12.06-1.25-17.04-3.74c-4.98-2.49-8.85-6.07-11.6-10.75-2.75-4.67-4.13-10.16-4.13-16.45v-42.2c0-2.62-.26-4.54-.79-5.77-.52-1.22-1.46-2.07-2.82-2.56-1.35-.48-3.47-.72-6.36-.72-.26,0-.39-.26-.39-.79s.13-.79.39-.79l6.82.13c3.84.18,6.95.26,9.3.26,2.62,0,5.85-.09,9.7-.26l6.55-.13c.26,0,.39.26.39.79s-.13.79-.39.79c-2.88,0-5.03.26-6.42.79-1.4.52-2.34,1.42-2.82,2.69-.48,1.27-.72,3.21-.72,5.83v37.35c0,10.4,2.16,18.15,6.49,23.26,4.33,5.11,10.37,7.67,18.15,7.67s13.24-2.29,17.43-6.88c4.2-4.59,6.29-11.07,6.29-19.46v-36.83c0-4.54-1.03-8.08-3.08-10.62Z"/>
    <path class="cls-1" d="M587.64,321.45c-.44.09-.74.04-.92-.13l-63.04-73.39c-2.97-3.41-5.59-5.79-7.86-7.14-2.27-1.35-4.5-2.03-6.68-2.03-.26,0-.39-.26-.39-.79s.13-.79.39-.79l5.24.13c1.05.09,2.62.13,4.72.13l8.39-.13c1.05-.09,2.27-.13,3.67-.13.7,0,1.22.17,1.57.52.35.35.87,1.05,1.57,2.1,1.49,2.01,2.58,3.41,3.28,4.2l49.67,58.45,1.05,18.48c0,.26-.22.44-.66.52ZM521.72,240.2l3.54.26v62.77c0,4.63.9,8.17,2.69,10.62,1.79,2.45,4.43,3.67,7.93,3.67.26,0,.39.26.39.79s-.13.79-.39.79c-2.27,0-4.02-.04-5.24-.13l-6.95-.13-7.73.13c-1.4.09-3.41.13-6.03.13-.26,0-.39-.26-.39-.79s.13-.79.39-.79c3.76,0,6.66-1.22,8.71-3.67,2.05-2.45,3.08-5.98,3.08-10.62v-63.04ZM588.3,320.93l-3.54-3.93v-63.82c0-4.63-.9-8.19-2.69-10.68-1.79-2.49-4.44-3.74-7.93-3.74-.17,0-.26-.26-.26-.79s.09-.79.26-.79l5.37.13c2.8.18,5.11.26,6.95.26,1.66,0,4.06-.09,7.21-.26l5.5-.13c.26,0,.39.26.39.79s-.13.79-.39.79c-3.5,0-6.18,1.25-8.06,3.74-1.88,2.49-2.82,6.05-2.82,10.68v67.76Z"/>
    <path class="cls-1" d="M658.02,319.22c-1.31-.09-2.97-.17-4.98-.26s-4.24-.13-6.68-.13l-9.3.13c-1.66.09-3.98.13-6.95.13-.17,0-.26-.26-.26-.79s.09-.79.26-.79c2.97,0,5.13-.22,6.49-.66,1.35-.44,2.29-1.29,2.82-2.56.52-1.27.79-3.21.79-5.83v-60.68c0-2.62-.24-4.54-.72-5.77-.48-1.22-1.42-2.07-2.82-2.56-1.4-.48-3.54-.72-6.42-.72-.18,0-.26-.26-.26-.79s.09-.79.26-.79l6.95.13c3.84.18,6.9.26,9.17.26,3.41,0,6.95-.13,10.62-.39,4.37-.17,7.29-.26,8.78-.26,8.91,0,16.82,1.75,23.72,5.24,6.9,3.5,12.25,8.26,16.05,14.28,3.8,6.03,5.7,12.8,5.7,20.31,0,8.48-1.97,15.97-5.9,22.48-3.93,6.51-9.22,11.53-15.86,15.07-6.64,3.54-13.94,5.31-21.89,5.31-2.71,0-5.9-.13-9.57-.39ZM682.33,312.67c4.67-2.88,8.32-7.14,10.94-12.78,2.62-5.64,3.93-12.39,3.93-20.25s-1.25-14.3-3.74-20.38c-2.49-6.07-6.01-10.88-10.55-14.42-4.54-3.54-9.83-5.31-15.86-5.31-3.76,0-6.62.22-8.58.66s-3.43,1.24-4.39,2.42c-.96,1.18-1.44,2.99-1.44,5.44v58.97c0,3.58.94,6.14,2.82,7.67,1.88,1.53,5.48,2.29,10.81,2.29,6.03,0,11.38-1.44,16.05-4.32Z"/>
    <path class="cls-1" d="M768.56,314.97c-6.34-3.8-11.23-8.96-14.68-15.46-3.45-6.51-5.18-13.61-5.18-21.3,0-9,2.27-16.71,6.82-23.13,4.54-6.42,10.37-11.25,17.5-14.48,7.12-3.23,14.39-4.85,21.82-4.85,8.3,0,15.59,1.95,21.88,5.83,6.29,3.89,11.12,9.02,14.48,15.4,3.36,6.38,5.05,13.15,5.05,20.31,0,7.95-2.1,15.25-6.29,21.89-4.19,6.64-9.81,11.88-16.84,15.73-7.04,3.85-14.66,5.77-22.87,5.77s-15.36-1.9-21.69-5.7ZM808.79,313.26c4.15-2.84,7.43-7.01,9.83-12.51,2.4-5.51,3.61-12.06,3.61-19.66,0-8.13-1.33-15.35-4-21.69-2.67-6.33-6.47-11.29-11.4-14.88-4.94-3.58-10.73-5.37-17.37-5.37-8.56,0-15.16,3.04-19.79,9.11-4.63,6.07-6.95,14.48-6.95,25.23,0,8.39,1.35,15.92,4.06,22.61,2.71,6.68,6.51,11.93,11.4,15.73,4.89,3.8,10.4,5.7,16.51,5.7,5.24,0,9.94-1.42,14.09-4.26Z"/>
    <path class="cls-1" d="M909.64,319.49c-.87,0-1.36-.17-1.44-.52l-33.16-70.9c-1.84-3.85-3.39-6.36-4.65-7.54-1.27-1.18-3.17-1.77-5.7-1.77-.26,0-.39-.26-.39-.79s.13-.79.39-.79l3.41.13c2.1.18,4.28.26,6.55.26,4.98,0,9.39-.09,13.24-.26,1.22-.09,2.75-.13,4.59-.13.26,0,.39.26.39.79s-.13.79-.39.79c-2.27,0-3.93.24-4.98.72-1.05.48-1.57,1.33-1.57,2.56,0,1.31.83,3.76,2.49,7.34l26.21,55.96-5.24,8.13,15.73-40.89,2.36,3.41-16.38,42.99c-.09.35-.57.52-1.44.52ZM985.52,237.97c0,.52-.09.79-.26.79-3.15,0-6.03,1.18-8.65,3.54-2.62,2.36-4.81,5.77-6.55,10.22l-25.42,66.44c-.09.35-.57.52-1.44.52s-1.35-.17-1.44-.52l-33.16-70.9c-1.49-3.15-2.93-5.48-4.33-7.01-1.4-1.53-3.01-2.29-4.85-2.29-.26,0-.39-.26-.39-.79s.13-.79.39-.79l3.15.13c1.92.18,3.84.26,5.77.26,4.11,0,7.73-.09,10.88-.26.87-.09,2.01-.13,3.41-.13.26,0,.39.26.39.79s-.13.79-.39.79c-1.31,0-2.27.15-2.88.46-.61.31-.92.9-.92,1.77,0,.7.28,1.79.85,3.28.57,1.49,1.29,3.19,2.16,5.11l26.47,55.96-5.24,8.13,23.2-60.55c.87-2.27,1.31-4.41,1.31-6.42,0-2.45-.72-4.35-2.16-5.7-1.44-1.35-3.47-2.03-6.09-2.03-.26,0-.39-.26-.39-.79s.13-.79.39-.79l5.77.13c3.15.18,5.98.26,8.52.26,1.75,0,3.76-.09,6.03-.26l5.64-.13c.17,0,.26.26.26.79ZM936.11,242.69c0-2.62-1.31-3.93-3.93-3.93-.26,0-.39-.26-.39-.79s.13-.79.39-.79c.79,0,1.7.07,2.75.2,1.05.13,2.97.2,5.77.2,1.57,0,3.41-.09,5.5-.26l5.11-.13c.17,0,.26.26.26.79s-.09.79-.26.79c-2.97,0-5.59,1.09-7.86,3.28-2.27,2.18-4.32,5.68-6.16,10.49l-9.04,23.46-2.36-3.41,7.86-20.58c1.57-4.11,2.36-7.21,2.36-9.31Z"/>
    <path class="cls-1" d="M1091.54,321.45c-.44.09-.74.04-.92-.13l-63.04-73.39c-2.97-3.41-5.59-5.79-7.86-7.14-2.27-1.35-4.5-2.03-6.68-2.03-.26,0-.39-.26-.39-.79s.13-.79.39-.79l5.24.13c1.05.09,2.62.13,4.72.13l8.39-.13c1.05-.09,2.27-.13,3.67-.13.7,0,1.22.17,1.57.52.35.35.87,1.05,1.57,2.1,1.49,2.01,2.58,3.41,3.28,4.2l49.67,58.45,1.05,18.48c0,.26-.22.44-.66.52ZM1025.62,240.2l3.54.26v62.77c0,4.63.9,8.17,2.69,10.62,1.79,2.45,4.43,3.67,7.93,3.67.26,0,.39.26.39.79s-.13.79-.39.79c-2.27,0-4.02-.04-5.24-.13l-6.95-.13-7.73.13c-1.4.09-3.41.13-6.03.13-.26,0-.39-.26-.39-.79s.13-.79.39-.79c3.76,0,6.66-1.22,8.71-3.67,2.05-2.45,3.08-5.98,3.08-10.62v-63.04ZM1092.2,320.93l-3.54-3.93v-63.82c0-4.63-.9-8.19-2.69-10.68-1.79-2.49-4.44-3.74-7.93-3.74-.17,0-.26-.26-.26-.79s.09-.79.26-.79l5.37.13c2.8.18,5.11.26,6.95.26,1.66,0,4.06-.09,7.21-.26l5.5-.13c.26,0,.39.26.39.79s-.13.79-.39.79c-3.5,0-6.18,1.25-8.06,3.74-1.88,2.49-2.82,6.05-2.82,10.68v67.76Z"/>
  </g>
  <g>
    <path class="cls-1" d="M1241.12,241.95c4.2,2.88,6.29,6.95,6.29,12.19,0,4.28-1.33,8.32-4,12.12-2.67,3.8-6.16,6.84-10.49,9.11-4.32,2.27-8.85,3.41-13.56,3.41-3.15,0-5.37-.04-6.68-.13v30.67c0,2.71.22,4.68.66,5.9.44,1.22,1.33,2.05,2.69,2.49,1.35.44,3.56.66,6.62.66.17,0,.26.26.26.79s-.09.79-.26.79c-2.88,0-5.16-.04-6.82-.13l-9.57-.13-9.44.13c-1.66.09-3.93.13-6.81.13-.26,0-.39-.26-.39-.79s.13-.79.39-.79c2.97,0,5.13-.22,6.49-.66,1.35-.44,2.29-1.29,2.82-2.56.52-1.27.79-3.21.79-5.83v-60.68c0-2.62-.24-4.54-.72-5.77-.48-1.22-1.42-2.07-2.82-2.56-1.4-.48-3.54-.72-6.42-.72-.18,0-.26-.26-.26-.79s.09-.79.26-.79l6.82.13c3.84.18,6.95.26,9.3.26,2.62,0,5.37-.13,8.26-.39,1.05-.09,2.31-.17,3.8-.26,1.49-.09,3.1-.13,4.85-.13,7.78,0,13.76,1.44,17.95,4.32ZM1230.9,244.31c-2.36-2.8-5.68-4.19-9.96-4.19-3.15,0-5.31.61-6.49,1.83-1.18,1.22-1.77,3.54-1.77,6.95v26.08c2.1.35,4.63.52,7.6.52,5.15,0,8.8-1.2,10.94-3.6,2.14-2.4,3.21-6.7,3.21-12.91,0-6.99-1.18-11.88-3.54-14.68ZM1243.41,308.52c-5.64-7.6-12.47-18.17-20.51-31.71l10.49-3.28c7.34,11.36,13.48,20.23,18.41,26.6,4.93,6.38,9.32,11.01,13.17,13.89,3.85,2.88,7.56,4.33,11.14,4.33.17,0,.26.26.26.79s-.09.79-.26.79h-21.1c-2.1,0-5.96-3.8-11.6-11.4Z"/>
    <path class="cls-1" d="M1305.33,319.14c0-.52.13-.79.39-.79,2.97,0,5.13-.22,6.49-.66,1.35-.44,2.27-1.29,2.75-2.56.48-1.27.72-3.21.72-5.83v-60.68c0-2.62-.24-4.54-.72-5.77-.48-1.22-1.42-2.07-2.82-2.56-1.4-.48-3.54-.72-6.42-.72-.26,0-.39-.26-.39-.79s.13-.79.39-.79h54.52c.87,0,1.31.39,1.31,1.18l.26,17.04c0,.18-.24.28-.72.33-.48.04-.76-.07-.85-.33-2.1-9.87-8.13-14.81-18.08-14.81h-5.37c-3.23,0-5.48.57-6.75,1.7-1.27,1.14-1.9,3.06-1.9,5.77v59.89c0,2.88.55,4.89,1.64,6.03,1.09,1.14,3.04,1.7,5.83,1.7h6.42c11.71,0,19.13-5.64,22.28-16.91,0-.17.22-.26.66-.26.61,0,.92.13.92.39-.87,6.64-1.31,12.71-1.31,18.22,0,.7-.13,1.2-.39,1.51-.26.31-.79.46-1.57.46h-56.88c-.26,0-.39-.26-.39-.79ZM1340.59,279.04h-18.35v-3.41h18.48c9.61,0,14.42-3.23,14.42-9.7,0-.26.24-.39.72-.39s.72.13.72.39l-.13,11.4.13,6.16c.17,2.8.26,5.07.26,6.82,0,.17-.26.26-.79.26s-.79-.09-.79-.26c0-7.51-4.89-11.27-14.68-11.27Z"/>
    <path class="cls-1" d="M1425.58,314.88c.66,1.27,1.92,2.16,3.8,2.69,1.88.52,4.83.79,8.85.79.26,0,.39.26.39.79s-.13.79-.39.79c-3.58,0-6.38-.04-8.39-.13l-11.4-.13-9.44.13c-1.66.09-3.93.13-6.82.13-.26,0-.39-.26-.39-.79s.13-.79.39-.79c2.97,0,5.13-.22,6.49-.66,1.35-.44,2.27-1.29,2.75-2.56.48-1.27.72-3.21.72-5.83v-60.68c0-2.62-.24-4.54-.72-5.77-.48-1.22-1.42-2.07-2.82-2.56-1.4-.48-3.54-.72-6.42-.72-.26,0-.39-.26-.39-.79s.13-.79.39-.79l6.82.13c3.84.18,6.95.26,9.31.26,2.01,0,4.46-.13,7.34-.39,1.05-.09,2.47-.17,4.26-.26,1.79-.09,3.91-.13,6.36-.13,8.56,0,15.38,1.84,20.44,5.5,5.07,3.67,7.6,9.31,7.6,16.91,0,5.51-1.42,10.18-4.26,14.02-2.84,3.85-6.47,6.73-10.88,8.65-4.41,1.92-8.93,2.88-13.56,2.88-2.45,0-4.54-.22-6.29-.66-.18,0-.26-.22-.26-.66,0-.26.07-.52.2-.79.13-.26.28-.35.46-.26,1.31.35,2.84.52,4.59.52,4.54,0,8.39-1.88,11.53-5.64,3.15-3.76,4.72-9.13,4.72-16.12s-1.6-12.25-4.79-16.05c-3.19-3.8-7.67-5.7-13.43-5.7-2.1,0-3.69.22-4.79.66-1.09.44-1.86,1.25-2.29,2.43-.44,1.18-.66,3.04-.66,5.57v59.89c0,2.8.33,4.83.98,6.1Z"/>
    <path class="cls-1" d="M1509.12,245.68c-3.41,3.28-6.03,8.19-7.86,14.74,0,.26-.24.37-.72.33-.48-.04-.72-.15-.72-.33.35-3.41.74-7.8,1.18-13.17.44-5.37.66-9.41.66-12.12,0-.44.24-.66.72-.66s.72.22.72.66c0,1.92,2.45,2.88,7.34,2.88,7.51.26,16.29.39,26.34.39,5.16,0,10.62-.09,16.38-.26l8.91-.13c3.32,0,5.74-.22,7.27-.66,1.53-.44,2.51-1.31,2.95-2.62.09-.35.35-.52.79-.52s.66.17.66.52c-.26,2.71-.52,6.82-.79,12.32-.26,5.5-.39,9.96-.39,13.37,0,.18-.24.26-.72.26s-.77-.09-.85-.26c-.87-6.73-2.93-11.68-6.16-14.87-3.23-3.19-7.6-4.78-13.1-4.78-2.45,0-4.26.22-5.44.66-1.18.44-1.99,1.2-2.42,2.29-.44,1.09-.66,2.82-.66,5.18v60.41c0,2.62.28,4.57.85,5.83.57,1.27,1.64,2.12,3.21,2.56,1.57.44,4.06.66,7.47.66.26,0,.39.26.39.79s-.13.79-.39.79c-3.06,0-5.46-.04-7.21-.13l-10.75-.13-10.22.13c-1.84.09-4.37.13-7.6.13-.17,0-.26-.26-.26-.79s.09-.79.26-.79c3.41,0,5.92-.22,7.54-.66,1.62-.44,2.71-1.29,3.28-2.56.57-1.27.85-3.21.85-5.83v-60.68c0-2.27-.22-3.95-.66-5.05s-1.22-1.84-2.36-2.23c-1.14-.39-2.93-.59-5.37-.59-5.33,0-9.7,1.64-13.11,4.91Z"/>
    <path class="cls-1" d="M1633.16,315.21c.48,1.22,1.4,2.05,2.75,2.49,1.35.44,3.52.66,6.49.66.26,0,.39.26.39.79s-.13.79-.39.79c-2.8,0-5.03-.04-6.68-.13l-9.7-.13-9.44.13c-1.66.09-3.93.13-6.82.13-.26,0-.39-.26-.39-.79s.13-.79.39-.79c2.97,0,5.13-.22,6.49-.66,1.35-.44,2.29-1.29,2.82-2.56.52-1.27.79-3.21.79-5.83v-60.68c0-2.62-.26-4.54-.79-5.77-.52-1.22-1.46-2.07-2.82-2.56-1.35-.48-3.52-.72-6.49-.72-.26,0-.39-.26-.39-.79s.13-.79.39-.79l6.82.13c3.84.18,6.99.26,9.44.26,2.71,0,5.98-.09,9.83-.26l6.55-.13c.26,0,.39.26.39.79s-.13.79-.39.79c-2.88,0-5.03.26-6.42.79-1.4.52-2.34,1.42-2.82,2.69-.48,1.27-.72,3.21-.72,5.83v60.41c0,2.71.24,4.68.72,5.9Z"/>
    <path class="cls-1" d="M1701.11,313.83c.44,1.09,1.22,1.81,2.36,2.16,1.14.35,2.97.52,5.51.52h7.86c6.2,0,11.44-1.72,15.73-5.18,4.28-3.45,7.12-8.1,8.52-13.96,0-.17.17-.26.52-.26.17,0,.37.07.59.2.22.13.33.24.33.33-.79,8.04-1.18,14.81-1.18,20.31,0,.7-.13,1.2-.39,1.51-.26.31-.79.46-1.57.46h-61.33c-.17,0-.26-.26-.26-.79s.09-.79.26-.79c2.97,0,5.13-.22,6.49-.66,1.35-.44,2.27-1.29,2.75-2.56.48-1.27.72-3.21.72-5.83v-60.68c0-2.62-.24-4.54-.72-5.77-.48-1.22-1.42-2.07-2.82-2.56-1.4-.48-3.54-.72-6.42-.72-.17,0-.26-.26-.26-.79s.09-.79.26-.79l6.69.13c3.84.18,6.99.26,9.44.26,2.62,0,5.85-.09,9.7-.26l6.55-.13c.26,0,.39.26.39.79s-.13.79-.39.79c-2.88,0-5.03.24-6.42.72-1.4.48-2.34,1.36-2.82,2.62-.48,1.27-.72,3.21-.72,5.83v60.02c0,2.27.22,3.95.66,5.05Z"/>
    <path class="cls-1" d="M1775.29,319.14c0-.52.13-.79.39-.79,2.97,0,5.13-.22,6.49-.66,1.35-.44,2.27-1.29,2.75-2.56.48-1.27.72-3.21.72-5.83v-60.68c0-2.62-.24-4.54-.72-5.77-.48-1.22-1.42-2.07-2.82-2.56-1.4-.48-3.54-.72-6.42-.72-.26,0-.39-.26-.39-.79s.13-.79.39-.79h54.52c.87,0,1.31.39,1.31,1.18l.26,17.04c0,.18-.24.28-.72.33-.48.04-.76-.07-.85-.33-2.1-9.87-8.13-14.81-18.08-14.81h-5.37c-3.23,0-5.48.57-6.75,1.7-1.27,1.14-1.9,3.06-1.9,5.77v59.89c0,2.88.55,4.89,1.64,6.03s3.04,1.7,5.83,1.7h6.42c11.71,0,19.13-5.64,22.28-16.91,0-.17.22-.26.66-.26.61,0,.92.13.92.39-.87,6.64-1.31,12.71-1.31,18.22,0,.7-.13,1.2-.39,1.51-.26.31-.79.46-1.57.46h-56.88c-.26,0-.39-.26-.39-.79ZM1810.54,279.04h-18.35v-3.41h18.48c9.61,0,14.42-3.23,14.42-9.7,0-.26.24-.39.72-.39s.72.13.72.39l-.13,11.4.13,6.16c.17,2.8.26,5.07.26,6.82,0,.17-.26.26-.79.26s-.79-.09-.79-.26c0-7.51-4.89-11.27-14.68-11.27Z"/>
    <path class="cls-1" d="M1891.2,260.49c1.62,2.49,3.61,4.63,5.96,6.42,2.36,1.79,5.59,4,9.7,6.62,4.46,2.8,7.97,5.2,10.55,7.21,2.58,2.01,4.78,4.48,6.62,7.41,1.84,2.93,2.75,6.36,2.75,10.29,0,4.46-1.16,8.43-3.47,11.93-2.32,3.5-5.59,6.22-9.83,8.19-4.24,1.97-9.07,2.95-14.48,2.95-3.67,0-7.45-.48-11.34-1.44-3.89-.96-6.84-2.14-8.85-3.54-.79-.52-1.22-1.35-1.31-2.49l-.79-19.79v-.13c0-.35.22-.55.66-.59.44-.04.7.11.79.46,2.88,7.17,6.18,13.06,9.89,17.69,3.71,4.63,8.41,6.95,14.09,6.95,3.84,0,7.03-1.03,9.57-3.08,2.53-2.05,3.8-5.48,3.8-10.29,0-3.84-.85-7.21-2.56-10.09-1.7-2.88-3.8-5.29-6.29-7.21-2.49-1.92-5.88-4.28-10.16-7.08-4.19-2.71-7.47-5-9.83-6.88-2.36-1.88-4.37-4.2-6.03-6.95-1.66-2.75-2.49-5.96-2.49-9.63,0-4.54,1.27-8.39,3.8-11.53,2.53-3.15,5.83-5.48,9.89-7.01,4.06-1.53,8.32-2.29,12.78-2.29,2.88,0,5.81.28,8.78.85,2.97.57,5.51,1.29,7.6,2.16,1.31.52,1.97,1.35,1.97,2.49l.26,17.69c0,.35-.2.57-.59.66-.39.09-.68,0-.85-.26-1.75-5.33-4.09-10.16-7.01-14.48-2.93-4.32-7.32-6.49-13.17-6.49-3.93,0-7.06,1.16-9.37,3.47-2.32,2.32-3.47,5.4-3.47,9.24,0,3.23.81,6.1,2.42,8.59Z"/>
  </g>
</svg>