<?xml version="1.0" encoding="UTF-8"?>
<svg id="Layer_1" data-name="Layer 1" xmlns="http://www.w3.org/2000/svg" viewBox="0 0 500 500">
  <defs>
    <style>
      .cls-1 {
        fill: #d18704;
      }
    </style>
  </defs>
  <path class="cls-1" d="M141.49,185.19c.65,37.03,29.68,57.23,57.69,75.13,8.44,5.39,16.55,10.35,24.59,16.33,31.92,23.73,51.68,60.93,44.48,101.1-5.23,29.2-24.52,53.16-51.86,64.53-24.22,10.07-49.5,9.26-74.73,3.46-20.05-4.61-37.46-15.45-50.25-31.63-22.11-27.72-26.52-66.77-14.66-99.6-4.14,21.24-2.75,42.33,6.45,61.79,6.82,14.43,17.1,26.75,30.95,35.01,27.53,16.42,65.76,21.11,94.39,5.01,13.01-7.31,22.93-18.67,27.2-33.03,6.36-21.37,1.49-44.04-12.23-61.44-23.14-29.32-65.3-47.08-93.05-79.11-15.15-17.49-22.4-40.46-19.16-63.31,5.6-35.22,33.41-53.92,67.58-55.6l-.24-55.56c-.05-12.14-21.52-13.46-30.26-14.51-.22-1-.18-2.47.09-3.77l87.82.76c11.23.1,21.64.69,32.66,1.9,25.86,2.83,53.15,15.39,65.78,39.2,12.25,23.08,4.8,47.96-13.9,64.87-6.42,5.46-13.04,10.35-20.79,13.93l-24.05,11.1,44.23,47.3,44.32,47.6,19.83,21.1c12.53,13.33,25.5,24.96,44.51,26.76.66.06,1.05,1.91.58,1.98-10.76.8-22.72.99-33.95-.12-10.65-1.05-20.12-4.36-28.91-10.25-6.35-4.26-12.09-8.81-17.45-14.47l-62.41-65.79-51.7-54.73c36.49.49,70.06-18.38,72.4-57.31.73-23.58-6.69-44.8-28.3-56.46-8.84-4.85-18.16-7.44-28.21-9.25-14.06-2.29-27.89-2.66-42.52-2.33l.61,79.03c-31.44-5.78-68.79,15.18-67.52,50.37Z"/>
</svg>