<?xml version="1.0" encoding="UTF-8"?>
<svg id="Layer_1" data-name="Layer 1" xmlns="http://www.w3.org/2000/svg" viewBox="0 0 1000 1000">
  <defs>
    <style>
      .cls-1 {
        stroke: #d18704;
        stroke-miterlimit: 10;
        stroke-width: 4px;
      }

      .cls-1, .cls-2, .cls-3, .cls-4 {
        fill: #d18704;
      }

      .cls-5 {
        letter-spacing: .17em;
      }

      .cls-6 {
        letter-spacing: .19em;
      }

      .cls-2 {
        letter-spacing: .19em;
      }

      .cls-2, .cls-4 {
        font-family: CormorantUnicase-SemiBold, 'Cormorant Unicase';
        font-size: 66.72px;
        font-weight: 600;
      }
    </style>
  </defs>
  <path class="cls-3" d="M336.44,317.27c1.05,59.51,47.71,91.99,92.72,120.75,13.56,8.67,26.59,16.64,39.52,26.24,51.31,38.13,83.05,97.92,71.49,162.48-8.4,46.93-39.4,85.44-83.36,103.71-38.93,16.18-79.55,14.88-120.1,5.57-32.23-7.4-60.21-24.82-80.76-50.84-35.53-44.55-42.62-107.31-23.56-160.07-6.66,34.14-4.42,68.03,10.37,99.31,10.96,23.2,27.49,42.99,49.74,56.26,44.24,26.39,105.69,33.92,151.7,8.06,20.91-11.75,36.85-30.01,43.72-53.09,10.22-34.34,2.4-70.79-19.66-98.74-37.2-47.13-104.95-75.66-149.56-127.14-24.35-28.11-36-65.02-30.79-101.74,9.01-56.6,53.7-86.67,108.61-89.36l-.38-89.3c-.08-19.5-34.58-21.63-48.63-23.32-.35-1.61-.29-3.96.15-6.06l141.14,1.22c18.04.16,34.78,1.12,52.49,3.06,41.57,4.56,85.42,24.73,105.73,63,19.69,37.1,7.71,77.09-22.34,104.26-10.32,8.78-20.96,16.64-33.41,22.39l-38.65,17.84,71.09,76.02,71.22,76.51,31.87,33.91c20.14,21.43,40.99,40.11,71.53,43.01,1.06.1,1.69,3.07.94,3.18-17.29,1.29-36.52,1.59-54.57-.19-17.12-1.68-32.34-7-46.47-16.47-10.21-6.84-19.42-14.16-28.05-23.25l-100.31-105.74-83.08-87.97c58.64.79,112.6-29.55,116.36-92.1,1.17-37.9-10.75-72-45.48-90.75-14.21-7.8-29.19-11.96-45.34-14.87-22.6-3.68-44.82-4.28-68.34-3.75l.98,127.02c-50.54-9.3-110.56,24.4-108.52,80.95Z"/>
  <line class="cls-1" x1="221.6" y1="900" x2="768.82" y2="900"/>
  <g>
    <text class="cls-4" transform="translate(79.67 846.57)"><tspan class="cls-6" x="0" y="0">SUND</tspan><tspan class="cls-5" x="226.33" y="0">O</tspan><tspan class="cls-6" x="288.45" y="0">WN </tspan></text>
    <text class="cls-2" transform="translate(531.14 846.57)"><tspan x="0" y="0">REPTILES</tspan></text>
  </g>
</svg>